{"title":"Khwaabb 2014 Hindi Esub DVD SCR Rip 480P AC3 GOPI SAHI PDR","uid":10989922,"size":610452067,"categoryP":"video","categoryS":"movies","magnet":"?xt=urn:btih:0035ef89d4d8944cc17439d645f53d8c7960f61a&amp;dn=Khwaabb+2014+Hindi+Esub+DVD+SCR+Rip+480P+AC3+GOPI+SAHI+PDR&amp;tr=udp%3A%2F%2Ftracker.openbittorrent.com%3A80&amp;tr=udp%3A%2F%2Fopen.demonii.com%3A1337&amp;tr=udp%3A%2F%2Ftracker.coppersurfer.tk%3A6969&amp;tr=udp%3A%2F%2Fexodus.desync.com%3A6969","seeders":0,"leechers":1,"uploader":"jatt13","files":1,"time":1409986571,"description":"Video\nID                             : 1\nFormat                         : AVC\nFormat/Info                    : Advanced Video Codec\nFormat profile                 : &lt;a class=&quot;__cf_email__&quot; href=&quot;/cdn-cgi/l/email-protection&quot; data-cfemail=&quot;125a7b757a525e213c22&quot;&gt;[email&amp;#160;protected]&lt;/a&gt;&lt;script cf-hash='f9e31' type=&quot;text/javascript&quot;&gt;\n/* &lt;![CDATA[ */!function(){try{var t=&quot;currentScript&quot;in document?document.currentScript:function(){for(var t=document.getElementsByTagName(&quot;script&quot;),e=t.length;e--;)if(t[e].getAttribute(&quot;cf-hash&quot;))return t[e]}();if(t&amp;&amp;t.previousSibling){var e,r,n,i,c=t.previousSibling,a=c.getAttribute(&quot;data-cfemail&quot;);if(a){for(e=&quot;&quot;,r=parseInt(a.substr(0,2),16),n=2;a.length-n;n+=2)i=parseInt(a.substr(n,2),16)^r,e+=String.fromCharCode(i);e=document.createTextNode(e),c.parentNode.replaceChild(e,c)}}}catch(u){}}();/* ]]&gt; */&lt;/script&gt;\nFormat settings, CABAC         : Yes\nFormat settings, ReFrames      : 4 frames\nCodec ID                       : V_MPEG4/ISO/AVC\nDuration                       : 1h 30mn\nBit rate                       : 435 Kbps\nWidth                          : 854 pixels\nHeight                         : 480 pixels\nDisplay aspect ratio           : 16:9\nFrame rate mode                : Constant\nFrame rate                     : 25.000 fps\nColor space                    : YUV\nChroma subsampling             : 4:2:0\nBit depth                      : 8 bits\nScan type                      : Progressive\nBits/(Pixel*Frame)             : 0.042\nStream size                    : 281 MiB (48%)\nTitle                          : GOPI SAHI\nWriting library                : x264 core 138\nLanguage                       : Hindi\nDefault                        : Yes\nForced                         : No\n\nAudio\nID                             : 2\nFormat                         : AC-3\nFormat/Info                    : Audio Coding 3\nMode extension                 : CM (complete main)\nFormat settings, Endianness    : Big\nCodec ID                       : A_AC3\nDuration                       : 1h 30mn\nBit rate mode                  : Constant\nBit rate                       : 448 Kbps\nChannel(s)                     : 2 channels\nChannel positions              : Front: L R\nSampling rate                  : 48.0 KHz\nBit depth                      : 16 bits\nCompression mode               : Lossy\nDelay relative to video        : -80ms\nStream size                    : 289 MiB (50%)\nTitle                          : GOPI SAHI\nLanguage                       : Hindi\nDefault                        : Yes\nForced                         : No\n[IMG]http://i.imgur.com/wGfSmkr.jpg[/IMG]\n[IMG]http://i.imgur.com/qa2Eacx.jpg[/IMG]\n[IMG]http://i.imgur.com/MNCtbOR.jpg[/IMG]\n[IMG]http://i.imgur.com/P9q7oaH.jpg[/IMG]","torrent":{"xt":"urn:btih:0035ef89d4d8944cc17439d645f53d8c7960f61a","amp;dn":"Khwaabb+2014+Hindi+Esub+DVD+SCR+Rip+480P+AC3+GOPI+SAHI+PDR","amp;tr":["udp%3A%2F%2Ftracker.openbittorrent.com%3A80","udp%3A%2F%2Fopen.demonii.com%3A1337","udp%3A%2F%2Ftracker.coppersurfer.tk%3A6969","udp%3A%2F%2Fexodus.desync.com%3A6969"],"infoHash":"0035ef89d4d8944cc17439d645f53d8c7960f61a","infoHashBuffer":{"type":"Buffer","data":[0,53,239,137,212,216,148,76,193,116,57,214,69,245,61,140,121,96,246,26]},"announce":[],"urlList":[]}}